<?xml version="1.0" standalone="no"?>
<!DOCTYPE svg PUBLIC "-//W3C//DTD SVG 20010904//EN"
 "http://www.w3.org/TR/2001/REC-SVG-20010904/DTD/svg10.dtd">
<svg version="1.0" xmlns="http://www.w3.org/2000/svg"
 width="500.000000pt" height="500.000000pt" viewBox="0 0 500.000000 500.000000"
 preserveAspectRatio="xMidYMid meet">

<g transform="translate(0.000000,500.000000) scale(0.100000,-0.100000)"
fill="#000000" stroke="none">
<path d="M1513 4985 c-242 -65 -389 -304 -338 -548 l16 -77 -45 -63 c-59 -83
-111 -193 -137 -292 -29 -111 -29 -288 0 -400 23 -89 83 -220 132 -291 51 -75
158 -183 242 -246 71 -53 245 -147 323 -174 l32 -11 -24 -83 c-16 -56 -24
-108 -24 -162 0 -80 0 -80 -24 -74 -13 3 -69 11 -124 17 -240 26 -469 -47
-567 -181 -54 -73 -68 -115 -68 -201 -1 -67 4 -85 35 -150 39 -83 120 -178
198 -230 27 -19 50 -37 50 -41 0 -3 -19 -17 -42 -31 -92 -54 -141 -138 -140
-241 0 -74 18 -120 68 -176 49 -54 103 -81 176 -88 49 -4 58 -8 52 -21 -105
-258 -112 -536 -18 -723 32 -63 108 -164 134 -178 33 -18 67 -11 89 16 31 39
26 67 -19 119 -163 188 -165 470 -6 800 50 103 139 240 191 294 l23 23 46 -31
c78 -54 147 -73 251 -69 109 5 179 33 254 103 95 89 137 195 128 324 -2 42 -8
83 -11 93 -6 13 4 19 63 32 38 9 72 16 74 16 3 0 13 -22 23 -49 28 -80 84
-152 153 -198 86 -59 153 -77 259 -70 102 6 187 44 257 114 54 53 49 54 163
-26 253 -179 475 -485 557 -766 31 -107 43 -261 26 -350 -42 -226 -230 -388
-546 -470 -219 -57 -349 -69 -730 -69 -440 0 -625 22 -862 105 -45 16 -95 29
-112 29 -57 0 -82 -77 -38 -118 50 -48 314 -118 559 -149 188 -24 709 -23 893
1 577 75 885 268 971 606 21 78 23 256 5 350 -33 169 -116 364 -223 522 l-66
96 48 31 c145 94 162 306 33 422 -33 30 -86 56 -150 75 -8 2 7 30 39 71 28 37
67 101 87 142 30 64 36 88 39 162 6 123 -13 176 -92 255 -70 69 -131 97 -253
116 -90 13 -205 0 -323 -38 l-77 -24 -44 41 c-24 23 -75 62 -114 88 -38 25
-70 51 -71 56 0 6 31 32 70 58 214 147 375 383 411 604 6 37 3 46 -19 68 -30
30 -76 33 -99 7 -9 -10 -28 -58 -42 -107 -92 -316 -353 -535 -753 -631 -59
-14 -115 -33 -124 -42 -43 -37 -8 -122 50 -122 35 0 217 44 271 66 38 15 44
15 84 -1 75 -29 188 -106 260 -177 43 -41 79 -68 92 -68 12 0 57 13 101 29
102 37 217 55 300 48 278 -26 306 -257 63 -511 -71 -74 -89 -100 -89 -123 0
-50 19 -63 145 -98 144 -41 177 -67 179 -138 1 -58 -26 -97 -83 -117 -48 -17
-38 -22 -157 84 -49 43 -131 106 -182 139 -77 51 -91 64 -86 81 12 36 5 161
-11 206 -50 143 -166 243 -317 273 l-62 13 -12 48 c-17 65 -39 88 -82 84 -24
-2 -41 -11 -55 -30 -19 -26 -20 -32 -8 -78 11 -43 11 -52 -3 -66 -26 -25 -20
-79 10 -103 23 -18 35 -20 105 -14 94 7 150 -10 211 -65 61 -55 82 -104 82
-187 0 -113 -49 -192 -149 -236 -102 -45 -226 -21 -296 59 -43 49 -48 63 -123
341 -36 134 -72 254 -81 267 -20 30 -83 34 -108 6 -25 -27 -21 -61 24 -225 22
-82 39 -150 37 -152 -12 -10 -140 -30 -144 -23 -3 5 -23 75 -45 156 -31 120
-43 151 -65 170 -20 17 -34 22 -53 17 -31 -7 -61 -40 -61 -65 0 -10 30 -128
67 -262 80 -292 85 -343 36 -428 -77 -138 -255 -178 -376 -86 -124 95 -143
265 -43 383 15 17 54 46 88 63 78 39 98 57 98 89 0 31 -25 71 -45 71 -8 0 -17
5 -21 11 -13 22 -64 234 -70 293 -6 66 8 165 33 228 l15 39 58 -7 c50 -6 60
-4 79 15 27 27 28 82 2 105 -10 9 -66 28 -124 41 -273 62 -509 214 -644 418
-155 234 -164 517 -22 747 l42 67 42 -5 c35 -3 46 0 64 19 29 31 26 55 -14
118 -132 208 -1 473 241 489 154 10 283 -78 326 -221 13 -44 41 -67 78 -67 29
0 70 37 70 62 0 20 92 31 171 22 49 -6 57 -10 66 -35 14 -36 54 -56 90 -43 28
10 30 13 67 96 84 194 340 252 496 111 71 -64 102 -128 108 -225 4 -71 2 -82
-27 -140 -17 -35 -38 -74 -46 -88 -16 -27 -11 -55 14 -84 12 -14 26 -17 59
-13 l42 5 34 -57 c36 -61 86 -180 86 -204 0 -30 40 -67 74 -67 37 0 76 34 76
66 0 61 -74 227 -146 332 l-44 63 16 82 c14 69 15 94 5 156 -41 268 -292 445
-553 390 -86 -18 -158 -59 -233 -132 l-70 -69 -173 0 -172 0 -29 35 c-112 142
-308 208 -478 162z m138 -2571 l67 -15 21 -78 c27 -100 27 -102 -10 -126 -51
-33 -117 -130 -140 -207 -25 -80 -22 -186 5 -252 l16 -38 -49 -56 c-26 -32
-69 -87 -95 -124 -76 -109 -178 -153 -256 -113 -62 32 -78 129 -29 181 12 13
66 49 120 80 54 30 103 61 109 69 6 7 10 30 8 51 -3 36 -7 40 -92 89 -211 122
-313 276 -262 398 30 73 141 136 271 157 76 11 229 4 316 -16z"/>
<path d="M1535 4485 c-22 -21 -25 -33 -25 -103 0 -97 20 -132 75 -132 55 0 75
35 75 132 0 70 -3 82 -25 103 -13 14 -36 25 -50 25 -14 0 -37 -11 -50 -25z"/>
<path d="M2759 4491 c-21 -17 -24 -29 -27 -103 -3 -73 -1 -86 18 -110 29 -38
80 -39 109 -2 17 22 21 41 21 106 0 70 -3 82 -25 103 -29 30 -64 32 -96 6z"/>
<path d="M2011 4388 c-64 -23 -67 -76 -7 -134 110 -105 304 -97 400 17 31 37
33 72 6 99 -26 26 -81 26 -105 0 -9 -10 -36 -27 -60 -35 -49 -19 -110 -9 -139
24 -25 27 -66 40 -95 29z"/>
<path d="M2925 1505 c-48 -47 -19 -115 49 -115 38 0 76 36 76 72 0 27 -45 68
-75 68 -14 0 -37 -11 -50 -25z"/>
<path d="M2263 1330 c-44 -18 -57 -86 -23 -120 43 -43 120 -11 120 49 0 52
-51 89 -97 71z"/>
<path d="M3516 1219 c-34 -27 -36 -77 -3 -107 29 -28 57 -28 91 -1 34 27 35
71 1 104 -30 30 -54 31 -89 4z"/>
<path d="M1651 1014 c-27 -35 -27 -65 2 -92 33 -31 80 -29 106 4 12 15 21 34
21 44 0 34 -39 70 -75 70 -24 0 -39 -7 -54 -26z"/>
<path d="M2626 918 c-35 -50 -4 -118 54 -118 59 0 90 67 54 118 -11 16 -25 22
-54 22 -29 0 -43 -6 -54 -22z"/>
<path d="M3225 625 c-30 -30 -31 -54 -4 -89 40 -50 129 -22 129 41 0 32 -43
73 -75 73 -14 0 -37 -11 -50 -25z"/>
<path d="M2041 524 c-12 -15 -21 -34 -21 -44 0 -34 39 -70 75 -70 36 0 75 36
75 70 0 34 -39 70 -75 70 -24 0 -39 -7 -54 -26z"/>
</g>
</svg>
